<svg xmlns="http://www.w3.org/2000/svg" data-name="Layer 1" viewBox="0 0 128 128" x="0px" y="0px"><title>solid</title><circle cx="101" cy="88" r="2"/><path d="M45,74.39V87.25A3.64,3.64,0,0,0,48.51,91h31A3.64,3.64,0,0,0,83,87.25V74.39c0-5.89-3.38-10.89-8.06-12.68A14.08,14.08,0,0,1,71.17,65h0C75.49,65,79,69.21,79,74.39V87H49V74.39C49,69.21,52.51,65,56.82,65h0a14.08,14.08,0,0,1-3.77-3.29C48.38,63.49,45,68.5,45,74.39Z"/><path d="M60.48,62.35,58,75.27a2,2,0,0,0,.68,1.9l4,3.36a2,2,0,0,0,2.54,0l4-3.22A2,2,0,0,0,70,75.43L67.64,62.31a10,10,0,1,0-7.16,0ZM64,76.41l-1.84-1.55L64.05,65l1.77,10ZM64,47a6,6,0,1,1-6,6A6,6,0,0,1,64,47Z"/><path d="M85,98H43a2,2,0,0,0,0,4H85a2,2,0,0,0,0-4Z"/><path d="M85,106H43a2,2,0,0,0,0,4H85a2,2,0,0,0,0-4Z"/><path d="M85,114H43a2,2,0,0,0,0,4H85a2,2,0,0,0,0-4Z"/><path d="M97,24H78v4H97a2,2,0,0,1,2,2V80a2,2,0,0,0,4,0V30A6,6,0,0,0,97,24Z"/><path d="M101,94a2,2,0,0,0-2,2v26a2,2,0,0,1-2,2H31a2,2,0,0,1-2-2V30a2,2,0,0,1,2-2H50V24H31a6,6,0,0,0-6,6v92a6,6,0,0,0,6,6H97a6,6,0,0,0,6-6V96A2,2,0,0,0,101,94Z"/><path d="M56,36H72a2,2,0,0,0,2-2V2a2,2,0,0,0-2-2H56a2,2,0,0,0-2,2V34A2,2,0,0,0,56,36ZM58,4H70V32H58Z"/><circle cx="64" cy="26" r="2"/></svg>