<svg
  xmlns="http://www.w3.org/2000/svg"
  xmlns:xlink="http://www.w3.org/1999/xlink"
  version="1.1"
  x="0px"
  y="0px"
  viewBox="0 0 95 95"
  style="enable-background: new 0 0 90 90"
  xml:space="preserve"
>
  <path
    d="M73.2141724,33.450119H52.8567848c-0.5536308,0-1.0023346,0.4487-1.0023346,1.0023346  s0.4487038,1.0023346,1.0023346,1.0023346h20.3573875c0.5536346,0,1.0023346-0.4487,1.0023346-1.0023346  S73.767807,33.450119,73.2141724,33.450119z"
  />
  <path
    d="M73.2141724,42.6255951H30.5736217c-0.5536327,0-1.0023346,0.4487038-1.0023346,1.0023346  c0,0.5536346,0.4487019,1.0023384,1.0023346,1.0023384h42.6405487c0.5536346,0,1.0023346-0.4487038,1.0023346-1.0023384  C74.216507,43.0742989,73.767807,42.6255951,73.2141724,42.6255951z"
  />
  <path
    d="M74.216507,48.2715607c0-0.5536308-0.4487-1.0023346-1.0023346-1.0023346H30.5736217  c-0.5536327,0-1.0023346,0.4487038-1.0023346,1.0023346c0,0.5536346,0.4487019,1.0023384,1.0023346,1.0023384h42.6405487  C73.767807,49.2738991,74.216507,48.8251953,74.216507,48.2715607z"
  />
  <path
    d="M55.7048264,52.9151917c0-0.5536308-0.4487-1.0023346-1.0023346-1.0023346h-24.12887  c-0.5536327,0-1.0023346,0.4487038-1.0023346,1.0023346c0,0.5536346,0.4487019,1.0023384,1.0023346,1.0023384h24.12887  C55.2561264,53.9175301,55.7048264,53.4688263,55.7048264,52.9151917z"
  />
  <path
    d="M30.5736217,59.8594971c-0.5536327,0-1.0023346,0.4487-1.0023346,1.0023346s0.4487019,1.0023346,1.0023346,1.0023346  h12.095953c0.5536346,0,1.0023384-0.4487,1.0023384-1.0023346s-0.4487038-1.0023346-1.0023384-1.0023346H30.5736217z"
  />
  <path
    d="M73.5319061,57.4957123c-6.7986526,0-12.3100243,5.5113525-12.3100243,12.3099823  c0,6.7985992,5.5113716,12.3099518,12.3100243,12.3099518c6.7985535,0,12.3099289-5.5113525,12.3099289-12.3099518  C85.841835,63.0070648,80.3304596,57.4957123,73.5319061,57.4957123z M78.0496597,74.7641449  c-0.7979507,0.8167419-1.9762878,1.3339615-3.534996,1.5512695v1.5273819h-2.2168808v-1.5273819  c-0.8882065-0.0187988-1.7372513-0.160141-2.5477371-0.4240341c-0.8102798-0.2639008-1.5820007-0.6503448-2.3147659-1.1597366  l1.5091782-3.5860901c0.6953735,0.5465851,1.4111023,0.9624023,2.1469955,1.2482224  c0.7358932,0.2854309,1.4578934,0.4283447,2.1657867,0.4283447c0.4408722,0,0.7854233-0.0759583,1.0338593-0.2282715  c0.2484283-0.1519165,0.3727417-0.3617783,0.3727417-0.6288071c0-0.2047729-0.1104126-0.3692169-0.3308487-0.4937286  c-0.2204361-0.124115-0.7311935-0.2638931-1.53228-0.4189453l-1.3786011-0.2889557  c-1.0681152-0.2173004-1.9034576-0.671875-2.5056458-1.364502c-0.6023788-0.6922379-0.9036636-1.541481-0.9036636-2.5477371  c0-1.1299744,0.3989716-2.0786667,1.1971207-2.8456879c0.79776-0.7666321,1.873703-1.2278633,3.2276382-1.3833008v-1.415802  h2.207489v1.3692055c0.7141571,0.0250587,1.4050293,0.1292076,2.0726013,0.3120575  c0.667572,0.183239,1.3118439,0.4487,1.9328232,0.7963867l-1.4623947,3.4189034  c-0.627243-0.3974152-1.2016296-0.6910629-1.7231522-0.8805695c-0.5217285-0.1891098-1.0154572-0.2838669-1.4811859-0.2838669  c-0.4471359,0-0.8010864,0.080658-1.0618515,0.2419739c-0.2607651,0.161705-0.3913422,0.3727417-0.3913422,0.6335068  c0,0.3539505,0.5963135,0.6429062,1.7885437,0.8664703l0.1489792,0.0278015l1.285614,0.2513657  c1.1051102,0.205162,1.9637527,0.6166687,2.575531,1.23452c0.6115799,0.6178436,0.9175644,1.3833008,0.9175644,2.2959671  C79.2467804,72.8561783,78.8476105,73.9477844,78.0496597,74.7641449z"
  />
  <polygon
    points="19.7452698,36.0518837 19.7454662,36.0518837 19.7448788,36.0512962 "
  />
  <path
    d="M30.5783215,31.9076576c6.3043346-3.9508057,8.5920887-7.3025608,8.4403667-7.9705219l-4.5318489-7.2267246  l-7.5686073,8.3357296c-0.2474518,0.2726307-0.5652828,0.4718018-0.918644,0.5756817l-10.8003578,3.175806l4.5352726,7.2370281  C20.3043861,36.4498787,24.3092232,35.8363419,30.5783215,31.9076576z"
  />
  <path
    d="M8.9566593,39.8002892l-0.1032686-9.1367168l-1.9983072,0.5875988l0.0969052,8.5715561l-2.6771355,5.0569496  c-0.2590017,0.4894218-0.0724344,1.0959129,0.4169869,1.3551102c0.1493716,0.0790901,0.3099017,0.1166763,0.4680829,0.1166763  c0.3592353,0,0.7067246-0.1942024,0.8866358-0.5336647l0.952806-1.7998734l0.0368042,3.2591324  c0.0062647,0.5497169,0.4537916,0.9909821,1.0021391,0.9909821c0.0037203,0,0.0076351,0,0.0115509,0  c0.5534372-0.0062675,0.9972448-0.4600563,0.9909801-1.0136909L9.004035,43.9957085l0.992938,1.7774544  c0.2701607,0.4831581,0.8807631,0.6562157,1.3639202,0.386055c0.4833527-0.2701607,0.6562166-0.8805656,0.3862514-1.3641129  L8.9566593,39.8002892z"
  />
  <polygon
    points="39.7928543,7.8843555 19.3000927,13.9101372 4.9413476,29.7243729 25.4341087,23.6985664 "
  />
  <path
    d="M81.6549301,25.613306v31.5882664c0.7113266,0.4593925,1.3828659,0.9748535,2.0046768,1.5445633V24.6109715  c0-0.5536346-0.4487076-1.0023365-1.0023422-1.0023365H40.9927216c0.1011124,0.6072254-0.0724373,1.2864685-0.4483109,2.0046711  H81.6549301z"
  />
  <path
    d="M58.5371094,69.7011719H22.132864V37.9143257c-0.6544552,0.1416893-1.2471447,0.2213173-1.7593727,0.2213173  c-0.085062,0.0000267-0.1642494-0.0057259-0.2452984-0.0096169v32.5774879c0,0.553627,0.4487019,1.0023346,1.0023365,1.0023346  h37.5280533c-0.0788956-0.6227646-0.1241188-1.2560043-0.1241188-1.9001541  C58.5344658,69.7706451,58.5369148,69.7361679,58.5371094,69.7011719z"
  />
</svg>
