<svg xmlns="http://www.w3.org/2000/svg" width="115" height="15" fill="none">
	<path fill="#000" d="M98.0815 3.76106h2.9785c.383.00002.756-.12591 1.062-.35866.306-.23274.527-.55955.632-.93072L103.446 0h-2.978c-.383-.00002374-.7562.125915-1.0619.358658-.3056.232744-.5274.559556-.6315.930722l-.6931 2.47168Z"></path>
	<path fill="#000" d="M113.954 2e-8h-2.639c-.243-.00004034-.483.05049908-.706.14843698-.222.097938-.422.241152-.587.420628-.165.179476-.291.391325-.37.622215-.08.23088-.111.4758-.091.71934l.593 7.46194c.02.24354-.011.48846-.091.71934-.079.2309-.205.4427-.37.6222s-.365.3227-.587.4206c-.223.098-.463.1485-.706.1485h-2.385l3.743-5.48674h-2.871c-.285-.00003-.567.06989-.819.20372-.253.13383-.47.32755-.631.56442l-5.091 7.4619h-.8298l2.3078-8.23004h-2.979c-.3833-.00003-.7562.12591-1.0619.35866-.3057.23274-.5274.55955-.6315.93072l-1.9459 6.94066h-8.4714l1.3398-4.77871h3.5143c1.0261-.00001 2.0241-.33715 2.8422-.96014.8181-.623 1.4115-1.49775 1.69-2.49119l.5701-2.0354c.1232-.43983.1435-.90241.0592-1.35145-.0843-.44905-.2708-.87235-.5449-1.23671-.2742-.364361-.6285-.659878-1.0353-.863375C94.763.106028 94.3149.0000831 93.8607 2e-8h-6.2863C87.191-.00002372 86.8181.125915 86.5125.358658c-.3057.232744-.5274.559556-.6315.930722l-.6923 2.47168h5.827c.1451-.00001.2882.03386.418.09894.1298.06508.2428.1596.3302.2761.0873.11651.1465.25183.173.39529.0265.14346.0196.29115-.0204.43144l-.0079.02655c-.0649.2316-.2031.43563-.3935.58124-.1905.14561-.4229.22489-.6621.22584h-4.899c-.3834-.00003-.7562.12591-1.0619.35866-.3057.23274-.5274.55955-.6315.93072l-1.945 6.94066h-5.557c1.1822.0001 2.3322-.3884 3.2748-1.1063.9426-.7179 1.6263-1.7259 1.947-2.8706l1.1929-4.25314c.19-.67787.2212-1.39079.0914-2.08286-.1299-.69207-.4174-1.34446-.8399-1.90602-.4225-.56155-.9687-1.016997-1.5955-1.330612C80.2024.163353 79.5119.00009564 78.8118 2e-8h-4.1715C72.9171.00010472 71.2411.566376 69.8673 1.61268c-1.3739 1.04631-2.3705 2.51538-2.8382 4.18378l-.8928 3.18584c-.1655.58993-.1927 1.2104-.0797 1.8127.113.6023.3631 1.1701.7309 1.6588.3678.4887.8431.8851 1.3887 1.1579.5456.2729 1.1466.4149 1.7559.4148h-6.1816l.7689-2.7433h-3.6675c-.1435-.0001-.2851-.0335-.4136-.0979-.1285-.0643-.2404-.1577-.327-.2728-.0866-.1152-.1455-.2489-.172-.3908-.0266-.1419-.0201-.2881.0189-.427l1.2043-4.29824h-3.1256c-.3832.00017-.7559.1262-1.0614.35892-.3055.23273-.5271.55944-.6311.93046l-1.177 4.19736c-.1226.4347-.1431.8922-.0601 1.3363.0831.4441.2674.8627.5386 1.223.2711.3603.6217.6523 1.0241.8532.4023.2008.8456.305 1.2948.3043h55.2762c.243-.0001.483-.0507.706-.1487.222-.098.422-.2412.586-.4207.165-.1795.291-.3913.37-.6221.08-.2308.111-.4757.091-.7191L113.954 2e-8ZM70.7397 9.74248v-.49469l.9677-3.45133c.1641-.58589.514-1.10181.9964-1.46923.4824-.36742 1.071-.56623 1.6761-.56617h3.1554c.2459.00001.4884.05733.7085.16744.2201.11012.4119.27005.5603.46724.1484.19719.2493.42629.2949.66931.0456.24303.0346.49338-.0321.73141l-.9677 3.45133c-.1644.58588-.5145 1.10171-.9971 1.46911-.4825.3674-1.0711.5662-1.6763.5663h-3.1563c-.4058-.0007-.7948-.1633-1.0816-.4522-.2868-.2888-.448-.6803-.4482-1.08852Z"></path>
	<path fill="#000" d="M6.98037 0C5.14621 0 3.78092 1.75398 4.27619 3.53097c.03466.13046.08302.25683.14427.37699l2.21331 4.13983c.17906.33444.26876.70991.26034 1.08969-.00843.37977-.1147.75084-.30842 1.07692-.19372.3261-.46825.596-.79674.7833-.3285.1874-.6997.2857-1.07731.2855H1.04156L0 15h6.17017c1.10493-.0001 2.1796-.3632 3.06057-1.0341.88096-.6709 1.52006-1.6129 1.81996-2.6827l.3704-1.32303c.391-1.39489.2273-2.8881-.4566-4.16371l-1.0917-2.0354h10.0373c.1456-.00079.2893.03222.4201.09647.1308.06424.2451.158.3339.27395.0889.11595.15.25098.1785.39456.0285.14358.0237.29185-.0141.43325-.0678.24119-.2122.4535-.411.60461-.1988.15112-.4412.23278-.6904.23256h-4.5559c-.3834-.00003-.7562.12591-1.0619.35866-.3057.23274-.5274.55955-.6315.93072L11.2592 15h4.117l1.6124-5.75221h3.4458c1.0261-.00001 2.024-.33715 2.8421-.96014.8181-.623 1.4116-1.49775 1.6901-2.49119l.57-2.0354h2.3259s-1.0266.63628-1.5473 2.36726c-.2314.77522-.8736 3.11593-.8736 3.11593-.1886.67275-.2198 1.38035-.0909 2.06725.1288.6869.4142 1.3344.8336 1.8917.4194.5573.9615 1.0093 1.5837 1.3204.6223.3112 1.3077.473 2.0026.4729h4.117c1.71-.0001 3.3732-.562 4.7366-1.6003 1.3634-1.0384 2.3523-2.4963 2.8164-4.15195 0 0 .7521-2.58142.9677-3.45133.2586-1.04513-.3097-2.0354-.3097-2.0354h6.3338c.2459.00001.4884.05733.7085.16744.2201.11012.4119.27005.5603.46724.1483.19719.2493.42629.2949.66931.0456.24303.0346.49338-.0321.73141h-4.8128c-.3834-.00002-.7563.12591-1.062.35866-.3056.23274-.5274.55955-.6315.93072l-.6043 2.16549H46.9c.2458.00001.4883.05732.7085.16744.2201.11012.4119.27004.5602.46724.1484.19723.2494.42633.295.66933.0456.243.0346.4934-.0322.7314L47.39 15h4.5242l1.0425-3.7168s.5375-1.31064-.0783-2.28409c-.3369-.53097-1.4181-.9354-1.4181-.9354s1.2052.02567 1.8579-.30353c.3519-.177.7038-.70797 1.1762-1.96372.4952-1.31062-.3097-2.0354-.3097-2.0354h11.1114c.3834.00002.7563-.12591 1.0619-.35866.3057-.23274.5275-.55955.6315-.93072L67.6819 0H6.98037ZM37.9948 5.79646l-.9676 3.45133c-.1644.58574-.5144 1.10151-.9967 1.46891-.4824.3673-1.0708.5662-1.6758.5665h-3.1555c-.2458-.0001-.4884-.0574-.7085-.1675-.2202-.1101-.412-.27-.5604-.4672-.1484-.1972-.2495-.4262-.2952-.66924-.0457-.24301-.0349-.49338.0317-.73147l.9676-3.45133c.1644-.58574.5144-1.10149.9968-1.46887.4823-.36738 1.0707-.5663 1.6758-.56653h3.1554c.2459.00006.4884.05739.7085.1675.2202.11011.412.27002.5604.46718.1485.19716.2495.42623.2952.66924.0457.24302.0349.49338-.0317.73148Z"></path>
</svg>