<?xml version="1.0" encoding="utf-8"?>
<svg viewBox="0 0 415 465" xmlns="http://www.w3.org/2000/svg">
  <ellipse style="fill: rgb(255, 255, 255); paint-order: fill; stroke: rgb(255, 255, 255);" cx="207.437" cy="233.809" rx="145.341" ry="145.341"/>
  <path d="M 381.359 232.649 C 381.659 326.459 305.449 405.549 207.629 405.859 C 110.189 406.159 33.499 328.299 32.679 234.299 C 31.839 138.449 109.399 59.489 207.129 59.549 C 305.089 59.559 381.619 138.619 381.359 232.649 Z M 173.499 151.609 L 172.929 151.449 C 172.929 148.039 173.019 144.629 172.929 141.229 C 172.779 136.869 169.009 133.549 164.399 133.549 C 159.789 133.549 155.979 136.909 155.909 141.269 C 155.789 148.789 155.859 156.269 155.829 163.819 C 155.884 164.84 155.816 165.864 155.629 166.869 C 155.446 167.831 155.007 168.726 154.359 169.459 C 145.999 177.359 137.579 185.189 129.179 193.039 C 123.719 198.139 118.179 203.189 112.819 208.359 C 108.249 212.749 109.949 219.999 115.819 221.639 C 119.319 222.639 122.029 221.159 124.549 218.799 C 147.736 197.059 170.952 175.346 194.199 153.659 C 198.469 149.659 202.749 145.659 207.059 141.659 C 207.499 142.009 207.789 142.219 208.059 142.459 L 274.849 203.299 C 280.429 208.369 285.969 213.499 291.619 218.499 C 294.375 221.16 298.661 221.41 301.709 219.089 C 305.709 216.089 305.859 210.409 301.869 206.749 C 294.799 200.259 287.689 193.819 280.589 187.359 C 258.062 166.853 235.529 146.343 212.989 125.829 C 208.939 122.149 204.919 122.239 200.899 125.999 C 197.579 129.099 194.279 132.219 190.959 135.319 L 173.499 151.609 Z M 168.499 200.519 C 168.429 200.639 168.379 200.819 168.279 200.869 C 159.879 204.319 155.659 210.939 154.759 219.559 C 153.929 227.559 155.919 234.679 162.959 239.789 C 165.588 241.776 167.974 244.065 170.069 246.609 C 173.269 250.369 172.899 251.419 168.529 253.709 C 166.779 254.629 165.169 255.849 165.719 258.139 C 166.609 261.829 171.379 265.569 175.879 262.789 C 176.705 262.185 177.61 261.697 178.569 261.339 C 179.328 261.296 180.088 261.398 180.809 261.639 C 180.639 262.369 180.719 263.329 180.269 263.789 C 179.034 264.927 177.742 266.002 176.399 267.009 C 174.019 269.009 173.839 271.099 175.839 273.449 C 178.169 276.179 181.679 276.519 185.169 274.279 C 188.792 271.883 191.772 268.634 193.849 264.819 C 195.649 261.659 198.109 260.749 201.529 261.129 C 204.56 261.505 207.614 261.672 210.669 261.629 C 212.496 261.496 214.294 261.102 216.009 260.459 C 224.459 257.709 233.909 257.199 240.219 249.639 C 241.289 248.369 242.729 248.639 243.749 250.099 C 244.939 251.769 246.029 253.519 247.359 255.099 C 250.129 258.279 253.449 259.099 256.639 257.529 C 256.836 259.385 257.187 261.221 257.689 263.019 C 258.149 264.259 259.159 265.909 260.219 266.169 C 261.279 266.429 263.059 265.479 263.879 264.509 C 267.903 259.784 269.803 253.609 269.129 247.439 C 268.759 243.229 266.839 239.599 264.509 236.239 C 260.846 231.089 258.984 224.875 259.209 218.559 C 259.375 214.957 258.255 211.412 256.049 208.559 C 250.169 201.159 242.049 199.659 233.299 200.509 C 224.939 201.329 218.549 205.819 213.499 212.339 C 211.969 214.339 211.179 214.409 209.109 212.979 C 206.879 211.439 204.689 209.839 202.429 208.339 C 193.119 202.139 183.169 198.179 171.679 199.679 C 174.519 196.519 174.849 195.189 173.319 192.939 C 171.489 190.269 168.869 189.279 166.109 190.219 C 163.619 191.079 161.329 194.019 161.569 196.069 C 161.849 198.359 164.189 199.889 168.499 200.519 Z M 244.779 295.299 C 239.149 287.719 224.779 290.619 222.369 300.829 C 221.308 304.924 221.053 309.187 221.619 313.379 C 222.439 318.979 224.689 323.839 230.379 326.049 C 235.559 328.049 240.569 327.839 244.749 323.469 C 245.189 326.969 243.889 329.299 240.679 330.219 C 236.532 331.506 232.016 330.606 228.679 327.829 C 227.769 327.119 225.969 326.499 225.189 326.929 C 224.067 327.776 223.277 328.99 222.959 330.359 C 222.429 332.189 223.419 333.629 224.829 334.929 C 231.289 340.839 242.369 339.929 247.939 336.469 C 251.259 334.389 253.799 331.469 253.939 327.519 C 254.249 317.099 254.199 306.679 254.279 296.259 C 254.25 295.894 254.186 295.532 254.089 295.179 C 253.815 293.291 252.245 291.859 250.339 291.759 C 247.689 291.369 246.119 292.399 244.779 295.299 Z M 207.289 175.119 C 208.009 175.669 208.599 176.119 209.169 176.549 C 214.859 181.039 220.519 185.549 226.239 190.019 C 229.323 192.591 233.902 192.203 236.509 189.149 C 239.202 186.043 238.702 181.305 235.419 178.829 C 227.586 172.549 219.716 166.326 211.809 160.159 C 209.096 157.73 204.974 157.787 202.329 160.289 C 194.829 166.609 187.379 172.989 179.979 179.429 C 176.797 182.027 176.472 186.772 179.269 189.779 C 181.995 192.722 186.576 192.94 189.569 190.269 C 191.569 188.609 193.569 186.849 195.569 185.139 L 207.289 175.119 Z M 183.059 324.789 C 183.869 327.539 185.369 328.499 188.479 328.249 C 190.929 328.049 192.409 326.839 192.479 324.149 C 192.599 314.676 192.599 305.199 192.479 295.719 C 192.479 293.069 190.379 291.619 187.679 291.719 C 185.514 291.66 183.624 293.174 183.209 295.299 C 182.429 294.619 181.639 293.859 180.779 293.189 C 175.309 288.919 165.939 291.099 162.469 297.779 C 158.469 305.399 158.529 313.359 162.049 321.159 C 165.699 329.389 177.919 331.429 183.059 324.789 Z M 307.449 324.989 C 307.616 325.385 307.802 325.772 308.009 326.149 C 309.286 328.033 311.653 328.848 313.819 328.149 C 315.783 327.769 317.148 325.973 316.989 323.979 C 316.989 314.646 316.989 305.313 316.989 295.979 C 317.006 293.751 315.3 291.887 313.079 291.709 C 310.609 291.369 309.079 292.329 307.569 295.159 C 306.343 294.045 305.021 293.041 303.619 292.159 C 297.999 289.229 289.989 291.789 286.959 297.649 C 283.119 305.059 283.059 312.789 286.149 320.449 C 289.619 329.079 301.849 331.609 307.499 324.989 L 307.449 324.989 Z M 118.659 328.809 C 121.104 328.203 123.49 327.38 125.789 326.349 C 130.109 324.109 131.909 320.279 131.419 315.419 C 130.979 311.129 128.329 308.609 124.569 307.109 C 122.059 306.109 119.419 305.429 116.879 304.509 C 115.439 303.979 113.339 303.699 113.879 301.509 C 114.359 299.509 116.289 299.439 118.009 299.399 C 118.447 299.353 118.89 299.401 119.309 299.539 C 121.368 300.416 123.372 301.418 125.309 302.539 C 127.479 303.919 129.039 303.539 129.919 301.199 C 131.229 297.649 130.469 295.469 126.919 293.589 C 122.765 291.286 117.88 290.68 113.289 291.899 C 108.229 293.209 104.949 296.839 104.729 301.239 C 104.459 306.829 106.509 309.759 112.249 311.829 C 114.519 312.649 116.849 313.289 119.119 314.109 C 120.779 314.719 122.669 315.349 122.329 317.639 C 121.989 319.929 119.989 320.199 118.169 320.519 C 117.585 320.57 116.997 320.547 116.419 320.449 C 113.562 320.094 110.901 318.808 108.849 316.789 C 107.199 315.299 105.849 315.599 104.759 317.499 C 103.189 320.229 103.609 322.699 106.039 324.709 C 109.269 327.399 113.089 328.489 118.659 328.809 Z M 199.179 325.299 C 199.926 325.915 200.75 326.433 201.629 326.839 C 204.974 327.658 207.623 330.208 208.569 333.519 C 208.799 334.219 209.569 334.739 210.159 335.339 C 210.619 334.729 211.329 334.189 211.509 333.499 C 212.358 330.167 214.9 327.53 218.199 326.559 C 218.878 326.208 219.496 325.748 220.029 325.199 C 219.409 324.679 218.869 323.889 218.159 323.669 C 214.909 322.81 212.329 320.339 211.329 317.129 C 210.947 316.392 210.455 315.717 209.869 315.129 C 209.237 315.75 208.701 316.461 208.279 317.239 C 207.363 320.389 204.912 322.86 201.769 323.799 C 200.859 324.214 199.992 324.716 199.179 325.299 Z M 284.789 325.089 C 284.089 324.559 283.699 324.089 283.209 323.919 C 279.328 323.038 276.269 320.056 275.289 316.199 C 275.149 315.759 274.469 315.199 274.089 315.199 C 273.551 315.364 273.128 315.783 272.959 316.319 C 272.11 320.134 269.186 323.146 265.399 324.109 C 264.879 324.259 264.519 324.949 264.079 325.389 C 264.549 325.799 264.949 326.389 265.489 326.589 C 269.211 327.468 272.153 330.316 273.149 334.009 C 273.299 334.539 273.979 334.909 274.419 335.359 C 274.839 334.909 275.499 334.519 275.649 333.989 C 276.541 330.265 279.413 327.335 283.119 326.369 C 283.659 326.299 284.089 325.689 284.789 325.129 L 284.789 325.089 Z M 145.659 314.869 L 144.899 314.869 C 144.401 315.622 143.979 316.423 143.639 317.259 C 142.782 320.345 140.411 322.781 137.349 323.719 C 136.555 324.141 135.828 324.677 135.189 325.309 C 135.833 325.937 136.572 326.46 137.379 326.859 C 140.479 327.685 142.931 330.058 143.859 333.129 C 143.939 333.483 144.078 333.821 144.269 334.129 C 144.609 334.559 145.039 335.179 145.459 335.199 C 145.879 335.219 146.379 334.619 146.639 334.199 C 146.946 333.552 147.207 332.884 147.419 332.199 C 148.292 329.836 150.144 327.965 152.499 327.069 C 153.186 326.846 153.855 326.568 154.499 326.239 C 154.909 326.009 155.499 325.489 155.499 325.239 C 155.309 324.731 154.958 324.299 154.499 324.009 C 154.068 323.727 153.591 323.524 153.089 323.409 C 150.215 322.629 147.928 320.452 147.009 317.619 C 146.607 316.68 146.157 315.762 145.659 314.869 Z" style="fill: rgb(255, 128, 0);"/>
  <path d="M 188.499 209.299 C 190.149 209.769 191.859 209.909 193.209 210.689 C 197.259 213.039 201.209 215.609 205.109 218.149 C 206.649 219.149 208.109 220.289 209.599 221.299 C 211.789 222.759 212.719 222.489 214.409 220.449 C 220.459 213.149 228.319 210.129 237.679 211.539 C 245.179 212.669 248.469 217.649 247.479 224.899 C 246.026 223.472 244.446 222.18 242.759 221.039 C 240.609 219.819 238.329 220.509 236.299 221.749 C 232.919 223.809 231.829 227.489 233.629 230.559 C 235.849 234.329 240.309 234.949 245.569 232.439 C 244.622 234.059 243.52 235.583 242.279 236.989 C 240.018 239.062 237.63 240.993 235.129 242.769 C 231.409 245.479 227.539 247.999 223.799 250.699 C 218.657 254.636 211.963 255.921 205.729 254.169 C 193.969 251.229 183.039 246.749 173.799 238.789 C 168.629 234.339 166.649 228.619 167.639 221.909 C 167.675 221.77 167.751 221.645 167.859 221.549 C 169.229 223.449 170.289 225.739 172.059 227.179 C 174.359 229.049 176.589 227.439 178.639 225.649 C 178.839 226.509 179.039 227.229 179.179 227.969 C 179.622 230.227 181.053 232.168 183.079 233.259 C 186.509 235.259 189.079 234.259 190.079 230.429 C 191.353 224.715 191.083 218.765 189.299 213.189 C 189.039 212.279 188.689 211.399 188.409 210.489 C 188.39 210.09 188.42 209.691 188.499 209.299 Z M 191.159 236.539 C 188.349 236.539 186.069 239.309 186.159 242.539 C 186.122 245.281 188.252 247.564 190.989 247.719 C 193.799 247.719 196.279 244.969 196.299 241.879 C 196.394 238.95 194.06 236.516 191.129 236.489 L 191.159 236.539 Z" style="fill: rgb(255, 128, 0);"/>
  <path d="M 245.089 309.129 C 244.839 310.839 244.739 312.299 244.409 313.699 C 243.649 316.859 241.409 318.269 237.569 318.129 C 233.879 318.009 231.569 316.319 231.139 312.829 C 230.819 310.172 230.819 307.486 231.139 304.829 C 231.481 301.79 233.984 299.453 237.039 299.319 C 240.929 299.089 243.099 300.439 244.149 304.019 C 244.564 305.702 244.878 307.409 245.089 309.129 Z" style="fill: rgb(255, 128, 0);"/>
  <path d="M 183.639 310.239 C 183.266 312.49 182.775 314.72 182.169 316.919 C 181.545 319.106 179.582 320.641 177.309 320.719 C 174.549 320.919 171.989 320.329 170.689 317.809 C 168.038 312.986 168.038 307.142 170.689 302.319 C 173.026 298.167 178.982 298.101 181.41 302.201 C 181.511 302.372 181.604 302.549 181.689 302.729 C 182.759 305.099 183.039 307.849 183.639 310.239 Z" style="fill: rgb(255, 128, 0);"/>
  <path d="M 308.049 310.239 C 307.727 312.445 307.286 314.631 306.729 316.789 C 306.122 319.149 303.975 320.783 301.539 320.739 C 298.689 320.839 296.139 320.099 294.949 317.389 C 292.827 312.766 292.801 307.452 294.879 302.809 C 295.999 300.219 298.259 299.179 301.119 299.289 C 303.549 299.258 305.708 300.835 306.419 303.159 C 307.102 305.485 307.646 307.849 308.049 310.239 Z" style="fill: rgb(255, 128, 0);"/>
</svg>